<svg xmlns="http://www.w3.org/2000/svg" viewBox="0 0 566.9 608.9"><defs><style>.cls-1{fill:none;}.cls-2{fill:#dd0932;}.cls-3{fill:#009245;}.cls-4{fill:#f9b03d;}.cls-5{fill:#020203;isolation:isolate;opacity:0.35;}.cls-6{fill:#fff;}</style></defs><g id="Capa_2" data-name="Capa 2"><g id="Layer_1" data-name="Layer 1"><rect class="cls-1" x="141.7" y="162.7" width="283.5" height="283.5"/><polygon class="cls-2" points="11.6 202.2 555.2 202.2 566.9 101 283.4 0 0 101 11.6 202.2"/><polygon class="cls-2" points="11.7 202.9 555.1 202.9 555.2 202.2 11.6 202.2 11.7 202.9"/><polygon class="cls-3" points="531.8 405.2 35.1 405.2 43.2 475.8 280.9 607.5 285.9 607.5 523.7 475.8 531.8 405.2"/><polygon class="cls-2" points="35.1 405.2 531.8 405.2 531.9 404.5 35 404.5 35.1 405.2"/><polygon class="cls-4" points="35 405.2 531.9 405.2 555.1 202.9 11.7 202.9 35 405.2"/><polygon class="cls-5" points="283.4 0 283.4 67.6 283.4 67.2 283.4 375.7 283.4 375.7 283.4 608.9 283.4 608.9 523.7 475.8 566.9 101 283.4 0"/><path class="cls-6" d="M283.4,67.2,106.2,464.6h66.1l35.6-88.9H358.3l35.6,88.9H460L283.4,67.2Zm51.8,253.7H231.7l51.8-124.5Z"/></g></g></svg>