<svg width="1451" height="224" viewBox="0 0 1451 224" fill="none" xmlns="http://www.w3.org/2000/svg">
<path d="M278.895 180.072H255.149L308.403 32.0244H334.235L387.39 180.072H363.744L321.816 58.9513H320.624L278.895 180.072ZM282.869 122.145H359.67V140.824H282.869V122.145ZM411.74 114.196V180.072H390.279V68.9866H411.144V87.2692H412.634C415.151 81.241 419.092 76.4719 424.457 72.9612C429.822 69.3839 436.711 67.5955 445.123 67.5955C452.674 67.5955 459.264 69.1853 464.894 72.3649C470.591 75.4783 474.996 80.1483 478.109 86.3748C481.288 92.6013 482.878 100.318 482.878 109.526V180.072H461.417V112.109C461.417 104.094 459.297 97.8013 455.058 93.2308C450.819 88.5938 445.057 86.2753 437.771 86.2753C432.803 86.2753 428.332 87.4016 424.358 89.6536C420.45 91.8396 417.37 94.986 415.118 99.093C412.866 103.2 411.74 108.234 411.74 114.196ZM541.703 223.99C528.456 223.99 518.024 221.505 510.407 216.538C502.79 211.57 497.524 205.674 494.61 198.851L513.089 191.2C514.414 193.32 516.169 195.572 518.355 197.957C520.607 200.342 523.621 202.362 527.396 204.018C531.172 205.674 536.04 206.502 542.002 206.502C550.149 206.502 556.905 204.515 562.27 200.54C567.635 196.632 570.318 190.339 570.318 181.662V159.902H568.827C567.635 162.22 565.814 164.837 563.363 167.751C560.912 170.6 557.567 173.084 553.328 175.203C549.089 177.323 543.558 178.383 536.736 178.383C527.993 178.383 520.111 176.329 513.089 172.222C506.135 168.049 500.571 161.955 496.398 153.94C492.291 145.859 490.238 135.923 490.238 124.132C490.238 112.341 492.258 102.239 496.298 93.8268C500.405 85.348 505.969 78.8566 512.99 74.352C520.011 69.8478 527.993 67.5955 536.934 67.5955C543.823 67.5955 549.387 68.7547 553.626 71.0732C557.931 73.3255 561.276 75.9751 563.661 79.022C566.045 82.0692 567.9 84.752 569.225 87.0702H570.814V68.9866H591.779V182.556C591.779 192.095 589.56 199.911 585.123 206.005C580.749 212.099 574.789 216.604 567.238 219.518C559.687 222.499 551.175 223.99 541.703 223.99ZM541.505 160.399C550.844 160.399 557.998 157.186 562.965 150.761C567.999 144.269 570.516 135.293 570.516 123.834C570.516 116.349 569.423 109.791 567.238 104.16C565.052 98.4638 561.806 94.0257 557.501 90.8461C553.195 87.6002 547.863 85.9775 541.505 85.9775C535.014 85.9775 529.582 87.6665 525.211 91.0447C520.905 94.3568 517.66 98.8943 515.474 104.657C513.288 110.354 512.195 116.746 512.195 123.834C512.195 131.054 513.288 137.446 515.474 143.011C517.66 148.508 520.938 152.781 525.31 155.828C529.748 158.875 535.146 160.399 541.505 160.399ZM674.647 134.167V68.9866H696.109V180.072H675.047V160.796H673.852C671.204 166.691 667.098 171.627 661.533 175.601C655.968 179.575 649.015 181.529 640.669 181.463C633.515 181.463 627.191 179.906 621.69 176.793C616.261 173.68 611.988 169.01 608.875 162.783C605.829 156.557 604.304 148.84 604.304 139.632V68.9866H625.766V137.148C625.766 144.633 627.885 150.628 632.123 155.132C636.364 159.637 641.828 161.856 648.517 161.79C652.558 161.79 656.566 160.796 660.539 158.809C664.579 156.822 667.925 153.775 670.574 149.668C673.29 145.561 674.647 140.394 674.647 134.167ZM730.096 32.0244V180.072H708.634V32.0244H730.096ZM774.813 182.457C767.791 182.457 761.435 181.165 755.737 178.582C750.04 175.932 745.538 172.09 742.224 167.056C738.913 162.021 737.256 155.894 737.256 148.674C737.256 142.381 738.448 137.248 740.835 133.273C743.283 129.233 746.565 126.02 750.67 123.635C754.778 121.251 759.348 119.462 764.38 118.27C769.416 117.077 774.58 116.15 779.88 115.488C786.569 114.759 791.969 114.13 796.075 113.6C800.183 113.07 803.164 112.242 805.018 111.116C806.936 109.923 807.899 108.036 807.899 105.452V104.955C807.899 98.6624 806.11 93.7938 802.534 90.3493C799.023 86.9048 793.791 85.1826 786.834 85.1826C779.615 85.1826 773.886 86.7721 769.648 89.9517C765.475 93.0651 762.591 96.6091 761.002 100.583L740.635 95.9133C743.086 89.1568 746.629 83.7252 751.267 79.6182C755.97 75.4451 761.335 72.3982 767.362 70.477C773.456 68.5561 779.816 67.5955 786.437 67.5955C790.875 67.5955 795.577 68.1255 800.545 69.1853C805.515 70.1788 810.182 72.0668 814.556 74.8488C818.993 77.5649 822.604 81.4729 825.385 86.5734C828.166 91.6739 829.558 98.2651 829.558 106.346V180.072H808.396V164.87H807.602C806.274 167.586 804.188 170.302 801.342 173.017C798.558 175.733 794.983 177.985 790.61 179.774C786.24 181.562 780.972 182.457 774.813 182.457ZM779.483 165.168C785.51 165.168 790.645 164.009 794.883 161.69C799.124 159.306 802.366 156.192 804.621 152.35C806.872 148.508 807.999 144.435 807.999 140.129V125.722C807.205 126.45 805.712 127.146 803.526 127.808C801.342 128.471 798.859 129.034 796.075 129.497C793.294 129.961 790.577 130.392 787.929 130.789C785.277 131.12 783.058 131.385 781.272 131.584C777.099 132.18 773.291 133.108 769.845 134.366C766.402 135.559 763.618 137.347 761.499 139.731C759.445 142.05 758.421 145.13 758.421 148.972C758.421 154.338 760.408 158.378 764.38 161.094C768.356 163.81 773.388 165.168 779.483 165.168ZM842.183 180.072V68.9866H862.948V86.7721H864.14C866.194 80.8104 869.772 76.1075 874.872 72.663C880.037 69.1523 885.867 67.3968 892.359 67.3968C893.683 67.3968 895.24 67.463 897.029 67.5955C898.883 67.6617 900.372 67.7612 901.499 67.8936V88.5609C900.637 88.2957 899.08 88.0308 896.829 87.7659C894.642 87.5008 892.423 87.3683 890.172 87.3683C885.072 87.3683 880.502 88.4614 876.461 90.6474C872.486 92.767 869.34 95.7147 867.024 99.4903C864.769 103.2 863.645 107.506 863.645 112.407V180.072H842.183ZM942.547 180.072V32.0244L996.895 32.0244C1007.36 32.0244 1016.04 33.7466 1022.93 37.1912C1029.81 40.6357 1034.95 45.3056 1038.33 51.201C1041.77 57.0302 1043.49 63.588 1043.49 70.8746C1043.49 77.0349 1042.33 82.2349 1040.02 86.4743C1037.76 90.7137 1034.75 94.0919 1030.97 96.6091C1027.2 99.1262 1023.02 100.981 1018.45 102.173V103.564C1023.42 103.829 1028.26 105.419 1032.96 108.333C1037.66 111.248 1041.54 115.388 1044.59 120.754C1047.7 126.053 1049.25 132.544 1049.25 140.229C1049.25 147.78 1047.47 154.569 1043.89 160.597C1040.38 166.559 1034.95 171.295 1027.59 174.806C1020.24 178.317 1010.81 180.072 999.278 180.072H942.547ZM964.903 160.995H997.095C1007.82 160.995 1015.51 158.908 1020.14 154.735C1024.78 150.562 1027.1 145.362 1027.1 139.135C1027.1 134.432 1025.9 130.16 1023.52 126.318C1021.2 122.409 1017.86 119.296 1013.49 116.978C1009.12 114.659 1003.95 113.5 997.986 113.5H964.903V160.995ZM964.903 96.112H994.908C999.876 96.112 1004.38 95.1517 1008.42 93.2308C1012.46 91.3096 1015.64 88.5938 1017.96 85.0831C1020.34 81.5062 1021.53 77.3659 1021.53 72.663C1021.53 66.569 1019.38 61.4685 1015.08 57.3614C1010.84 53.1883 1004.31 51.1017 995.503 51.1017H964.903V96.112ZM1104.01 182.357C1093.61 182.357 1084.5 179.973 1076.68 175.203C1068.94 170.434 1062.91 163.744 1058.6 155.132C1054.36 146.521 1052.24 136.519 1052.24 125.126C1052.24 113.6 1054.36 103.531 1058.6 94.9198C1062.91 86.2423 1068.94 79.5187 1076.68 74.7496C1084.5 69.9802 1093.61 67.5955 1104.01 67.5955C1114.47 67.5955 1123.58 69.9802 1131.33 74.7496C1139.08 79.5187 1145.11 86.2423 1149.41 94.9198C1153.72 103.531 1155.87 113.6 1155.87 125.126C1155.87 136.519 1153.72 146.521 1149.41 155.132C1145.11 163.744 1139.08 170.434 1131.33 175.203C1123.58 179.973 1114.47 182.357 1104.01 182.357ZM1104.01 164.174C1110.83 164.174 1116.46 162.386 1120.9 158.809C1125.33 155.232 1128.61 150.496 1130.73 144.6C1132.92 138.639 1134.01 132.147 1134.01 125.126C1134.01 117.971 1132.92 111.414 1130.73 105.452C1128.61 99.4903 1125.33 94.7211 1120.9 91.1442C1116.46 87.567 1110.83 85.7785 1104.01 85.7785C1097.25 85.7785 1091.65 87.567 1087.22 91.1442C1082.84 94.7211 1079.56 99.4903 1077.38 105.452C1075.2 111.414 1074.1 117.971 1074.1 125.126C1074.1 132.147 1075.2 138.639 1077.38 144.6C1079.56 150.496 1082.84 155.232 1087.22 158.809C1091.65 162.386 1097.25 164.174 1104.01 164.174ZM1184.79 32.0244V180.072H1163.33V32.0244L1184.79 32.0244ZM1197.32 180.072V68.9866H1218.78V180.072H1197.32ZM1208.15 51.8966C1204.37 51.8966 1201.16 50.638 1198.51 48.1209C1195.86 45.6037 1194.53 42.5898 1194.53 39.079C1194.53 35.502 1195.86 32.455 1198.51 29.9378C1201.16 27.4207 1204.37 26.1621 1208.15 26.1621C1211.85 26.1621 1215.04 27.4207 1217.68 29.9378C1220.4 32.455 1221.76 35.502 1221.76 39.079C1221.76 42.5898 1220.4 45.6037 1217.68 48.1209C1215.04 50.638 1211.85 51.8966 1208.15 51.8966ZM1326.09 68.9866L1285.95 180.072H1262.7L1222.46 68.9866H1245.61L1273.83 154.636H1275.02L1303.04 68.9866H1326.09ZM1329.87 180.072V68.9866H1351.33V180.072H1329.87ZM1340.7 51.8966C1336.93 51.8966 1333.71 50.638 1331.06 48.1209C1328.42 45.6037 1327.09 42.5898 1327.09 39.079C1327.09 35.502 1328.42 32.455 1331.06 29.9378C1333.71 27.4207 1336.93 26.1621 1340.7 26.1621C1344.41 26.1621 1347.59 27.4207 1350.24 29.9378C1352.96 32.455 1354.31 35.502 1354.31 39.079C1354.31 42.5898 1352.96 45.6037 1350.24 48.1209C1347.59 50.638 1344.41 51.8966 1340.7 51.8966ZM1396.05 182.457C1389.03 182.457 1382.67 181.165 1376.97 178.582C1371.28 175.932 1366.77 172.09 1363.46 167.056C1360.15 162.021 1358.49 155.894 1358.49 148.674C1358.49 142.381 1359.69 137.248 1362.07 133.273C1364.52 129.233 1367.8 126.02 1371.91 123.635C1376.01 121.251 1380.58 119.462 1385.62 118.27C1390.65 117.077 1395.82 116.15 1401.12 115.488C1407.81 114.759 1413.2 114.13 1417.31 113.6C1421.42 113.07 1424.4 112.242 1426.25 111.116C1428.17 109.923 1429.13 108.036 1429.13 105.452V104.955C1429.13 98.6624 1427.35 93.7938 1423.77 90.3493C1420.26 86.9048 1415.03 85.1826 1408.07 85.1826C1400.85 85.1826 1395.12 86.7721 1390.88 89.9517C1386.71 93.0651 1383.83 96.6091 1382.24 100.583L1361.87 95.9133C1364.32 89.1568 1367.87 83.7252 1372.5 79.6182C1377.21 75.4451 1382.57 72.3982 1388.6 70.477C1394.69 68.5561 1401.05 67.5955 1407.68 67.5955C1412.11 67.5955 1416.82 68.1255 1421.78 69.1853C1426.75 70.1788 1431.42 72.0668 1435.79 74.8488C1440.23 77.5649 1443.84 81.4729 1446.62 86.5734C1449.4 91.6739 1450.79 98.2651 1450.79 106.346V180.072H1429.63V164.87H1428.84C1427.51 167.586 1425.43 170.302 1422.58 173.017C1419.8 175.733 1416.22 177.985 1411.85 179.774C1407.48 181.562 1402.21 182.457 1396.05 182.457ZM1400.72 165.168C1406.75 165.168 1411.88 164.009 1416.12 161.69C1420.36 159.306 1423.6 156.192 1425.86 152.35C1428.11 148.508 1429.23 144.435 1429.23 140.129V125.722C1428.44 126.45 1426.95 127.146 1424.76 127.808C1422.58 128.471 1420.09 129.034 1417.31 129.497C1414.53 129.961 1411.81 130.392 1409.16 130.789C1406.52 131.12 1404.3 131.385 1402.51 131.584C1398.33 132.18 1394.53 133.108 1391.08 134.366C1387.64 135.559 1384.86 137.347 1382.74 139.731C1380.68 142.05 1379.66 145.13 1379.66 148.972C1379.66 154.338 1381.64 158.378 1385.62 161.094C1389.59 163.81 1394.63 165.168 1400.72 165.168Z" fill="url(#paint0_linear_616_551)"/>
<path d="M143.685 158.551H59.3148L48.5435 184.652L101.5 214.846L154.456 184.652L143.685 158.551Z" fill="#F11653"/>
<path d="M73.7734 124.697H129.256L101.5 57.2529L73.7734 124.697Z" fill="#F11653"/>
<path d="M125.598 0L195.713 150.885L203 35.7979L125.598 0Z" fill="#F11653"/>
<path d="M77.4024 0L0 35.7979L7.28733 150.885L77.4024 0Z" fill="#F11653"/>
<defs>
<linearGradient id="paint0_linear_616_551" x1="433.142" y1="63.6479" x2="1479.57" y2="198.742" gradientUnits="userSpaceOnUse">
<stop stop-color="#F11653"/>
<stop offset="0.499023" stop-color="#F2E316"/>
<stop offset="1" stop-color="#439D4E"/>
</linearGradient>
</defs>
</svg>
